<svg width="72" height="28" fill="none" xmlns="http://www.w3.org/2000/svg"><path fill="url(#paint0_linear)" d="M0 0h72v28H0z"/><path d="M42.333 20.4H41v-1.6a5.447 5.447 0 00-2.857-4.8A5.447 5.447 0 0041 9.2V7.6h1.333a.801.801 0 000-1.6H31.667a.801.801 0 000 1.6H33v1.6a5.447 5.447 0 002.857 4.8A5.447 5.447 0 0033 18.8v1.6h-1.333a.801.801 0 000 1.6h10.666a.8.8 0 000-1.6zM31.667 7.067a.267.267 0 010-.534h10.666a.267.267 0 010 .534H31.667zM33.533 9.2V7.6h6.934v1.6a4.92 4.92 0 01-2.988 4.533h-.959A4.92 4.92 0 0133.533 9.2zm0 9.6a4.92 4.92 0 012.988-4.533h.958a4.92 4.92 0 012.988 4.533v1.6a.267.267 0 00-.534 0H39.4a.267.267 0 00-.533 0h-.534a.267.267 0 00-.533 0h-.533a.267.267 0 00-.534 0H36.2a.267.267 0 00-.533 0h-.534a.267.267 0 00-.533 0h-.533a.267.267 0 00-.534 0v-1.6zm8.8 2.667H31.667a.267.267 0 010-.534h10.666a.267.267 0 010 .534z" fill="#fff"/><path d="M34.333 20.133a.267.267 0 100-.533.267.267 0 000 .533zM35.4 20.133a.267.267 0 100-.533.267.267 0 000 .533zM36.467 20.133a.267.267 0 100-.533.267.267 0 000 .533zM37.533 20.133a.267.267 0 100-.533.267.267 0 000 .533zM38.6 20.133a.267.267 0 100-.533.267.267 0 000 .533zM39.667 20.133a.267.267 0 100-.533.267.267 0 000 .533zM34.867 19.6a.267.267 0 100-.533.267.267 0 000 .533zM35.933 19.6a.267.267 0 100-.533.267.267 0 000 .533zM37 15.067a.267.267 0 100-.534.267.267 0 000 .534zM35.4 12.133a.267.267 0 100-.533.267.267 0 000 .533zM36.467 12.133a.267.267 0 100-.533.267.267 0 000 .533zM37.533 12.133a.267.267 0 100-.533.267.267 0 000 .533zM38.6 12.133a.267.267 0 100-.533.267.267 0 000 .533zM38.067 11.6a.267.267 0 100-.533.267.267 0 000 .533zM38.6 11.067a.267.267 0 100-.534.267.267 0 000 .534zM35.933 11.6a.267.267 0 100-.533.267.267 0 000 .533zM37 11.6a.267.267 0 100-.533.267.267 0 000 .533zM35.4 11.067a.267.267 0 100-.534.267.267 0 000 .534zM35.933 12.667a.267.267 0 100-.534.267.267 0 000 .534zM36.467 13.2a.267.267 0 100-.533.267.267 0 000 .533zM37.533 13.2a.267.267 0 100-.533.267.267 0 000 .533zM37 12.667a.267.267 0 100-.534.267.267 0 000 .534zM38.067 12.667a.267.267 0 100-.534.267.267 0 000 .534zM37 15.867a.267.267 0 100-.534.267.267 0 000 .534zM37 16.667a.267.267 0 100-.534.267.267 0 000 .534zM37 17.467a.267.267 0 100-.534.267.267 0 000 .534zM37 18.267a.267.267 0 100-.534.267.267 0 000 .534zM37 19.067a.267.267 0 100-.534.267.267 0 000 .534zM38.067 19.6a.267.267 0 100-.533.267.267 0 000 .533zM39.133 19.6a.267.267 0 100-.533.267.267 0 000 .533z" fill="#fff"/><defs><linearGradient id="paint0_linear" x1="10.5" y1="12.25" x2="15.581" y2="33" gradientUnits="userSpaceOnUse"><stop stop-color="#FFA857"/><stop offset=".766" stop-color="#FFCA62" stop-opacity=".866"/><stop offset="1" stop-color="#FFD53F" stop-opacity=".73"/></linearGradient></defs></svg>