<svg width="72" height="28" viewBox="0 0 72 28" fill="none" xmlns="http://www.w3.org/2000/svg">
<rect width="72" height="28" fill="url(#paint0_linear)"/>
<path d="M41.3333 20.4H40V18.8C40 16.7757 38.8941 14.9493 37.1429 14C38.8941 13.0507 40 11.2243 40 9.2V7.6H41.3333C41.7744 7.6 42.1333 7.24107 42.1333 6.8C42.1333 6.35893 41.7744 6 41.3333 6H30.6666C30.2256 6 29.8666 6.35893 29.8666 6.8C29.8666 7.24107 30.2256 7.6 30.6666 7.6H32V9.2C32 11.2243 33.1058 13.0507 34.857 14C33.1058 14.9493 32 16.7757 32 18.8V20.4H30.6666C30.2256 20.4 29.8666 20.7589 29.8666 21.2C29.8666 21.6411 30.2256 22 30.6666 22H41.3333C41.7744 22 42.1333 21.6411 42.1333 21.2C42.1333 20.7589 41.7744 20.4 41.3333 20.4ZM30.6666 7.06667C30.5197 7.06667 30.4 6.9472 30.4 6.8C30.4 6.6528 30.5197 6.53333 30.6666 6.53333H41.3333C41.4802 6.53333 41.6 6.6528 41.6 6.8C41.6 6.9472 41.4802 7.06667 41.3333 7.06667H40H32H30.6666ZM32.5333 9.2V7.6H39.4666V9.2C39.4666 11.1805 38.2957 12.9541 36.4792 13.7333H35.5205C33.7042 12.9541 32.5333 11.1805 32.5333 9.2ZM32.5333 18.8C32.5333 16.8195 33.7042 15.0459 35.5208 14.2667H36.4794C38.2957 15.0459 39.4666 16.8195 39.4666 18.8V20.4C39.4666 20.2528 39.3472 20.1333 39.2 20.1333C39.0528 20.1333 38.9333 20.2528 38.9333 20.4H38.4C38.4 20.2528 38.2805 20.1333 38.1333 20.1333C37.9861 20.1333 37.8666 20.2528 37.8666 20.4H37.3333C37.3333 20.2528 37.2138 20.1333 37.0666 20.1333C36.9194 20.1333 36.8 20.2528 36.8 20.4H36.2666C36.2666 20.2528 36.1472 20.1333 36 20.1333C35.8528 20.1333 35.7333 20.2528 35.7333 20.4H35.2C35.2 20.2528 35.0805 20.1333 34.9333 20.1333C34.7861 20.1333 34.6666 20.2528 34.6666 20.4H34.1333C34.1333 20.2528 34.0138 20.1333 33.8666 20.1333C33.7194 20.1333 33.6 20.2528 33.6 20.4H33.0666C33.0666 20.2528 32.9472 20.1333 32.8 20.1333C32.6528 20.1333 32.5333 20.2528 32.5333 20.4V18.8ZM41.3333 21.4667H30.6666C30.5197 21.4667 30.4 21.3472 30.4 21.2C30.4 21.0528 30.5197 20.9333 30.6666 20.9333H32H40H41.3333C41.4802 20.9333 41.6 21.0528 41.6 21.2C41.6 21.3472 41.4802 21.4667 41.3333 21.4667Z" fill="white"/>
<path d="M33.3333 20.1333C33.4806 20.1333 33.6 20.0139 33.6 19.8667C33.6 19.7194 33.4806 19.6 33.3333 19.6C33.186 19.6 33.0667 19.7194 33.0667 19.8667C33.0667 20.0139 33.186 20.1333 33.3333 20.1333Z" fill="white"/>
<path d="M34.4 20.1333C34.5472 20.1333 34.6666 20.0139 34.6666 19.8667C34.6666 19.7194 34.5472 19.6 34.4 19.6C34.2527 19.6 34.1333 19.7194 34.1333 19.8667C34.1333 20.0139 34.2527 20.1333 34.4 20.1333Z" fill="white"/>
<path d="M35.4666 20.1333C35.6139 20.1333 35.7333 20.0139 35.7333 19.8667C35.7333 19.7194 35.6139 19.6 35.4666 19.6C35.3193 19.6 35.2 19.7194 35.2 19.8667C35.2 20.0139 35.3193 20.1333 35.4666 20.1333Z" fill="white"/>
<path d="M36.5333 20.1333C36.6806 20.1333 36.8 20.0139 36.8 19.8667C36.8 19.7194 36.6806 19.6 36.5333 19.6C36.3861 19.6 36.2667 19.7194 36.2667 19.8667C36.2667 20.0139 36.3861 20.1333 36.5333 20.1333Z" fill="white"/>
<path d="M37.6 20.1333C37.7473 20.1333 37.8666 20.0139 37.8666 19.8667C37.8666 19.7194 37.7473 19.6 37.6 19.6C37.4527 19.6 37.3333 19.7194 37.3333 19.8667C37.3333 20.0139 37.4527 20.1333 37.6 20.1333Z" fill="white"/>
<path d="M38.6666 20.1333C38.8139 20.1333 38.9333 20.0139 38.9333 19.8667C38.9333 19.7194 38.8139 19.6 38.6666 19.6C38.5194 19.6 38.4 19.7194 38.4 19.8667C38.4 20.0139 38.5194 20.1333 38.6666 20.1333Z" fill="white"/>
<path d="M33.8666 19.6C34.0139 19.6 34.1333 19.4806 34.1333 19.3333C34.1333 19.1861 34.0139 19.0667 33.8666 19.0667C33.7194 19.0667 33.6 19.1861 33.6 19.3333C33.6 19.4806 33.7194 19.6 33.8666 19.6Z" fill="white"/>
<path d="M34.9333 19.6C35.0806 19.6 35.2 19.4806 35.2 19.3333C35.2 19.1861 35.0806 19.0667 34.9333 19.0667C34.786 19.0667 34.6666 19.1861 34.6666 19.3333C34.6666 19.4806 34.786 19.6 34.9333 19.6Z" fill="white"/>
<path d="M35.9999 15.0667C36.1472 15.0667 36.2666 14.9473 36.2666 14.8C36.2666 14.6527 36.1472 14.5333 35.9999 14.5333C35.8527 14.5333 35.7333 14.6527 35.7333 14.8C35.7333 14.9473 35.8527 15.0667 35.9999 15.0667Z" fill="white"/>
<path d="M34.4 12.1333C34.5472 12.1333 34.6666 12.0139 34.6666 11.8667C34.6666 11.7194 34.5472 11.6 34.4 11.6C34.2527 11.6 34.1333 11.7194 34.1333 11.8667C34.1333 12.0139 34.2527 12.1333 34.4 12.1333Z" fill="white"/>
<path d="M35.4666 12.1333C35.6139 12.1333 35.7333 12.0139 35.7333 11.8667C35.7333 11.7194 35.6139 11.6 35.4666 11.6C35.3193 11.6 35.2 11.7194 35.2 11.8667C35.2 12.0139 35.3193 12.1333 35.4666 12.1333Z" fill="white"/>
<path d="M36.5333 12.1333C36.6806 12.1333 36.8 12.0139 36.8 11.8667C36.8 11.7194 36.6806 11.6 36.5333 11.6C36.3861 11.6 36.2667 11.7194 36.2667 11.8667C36.2667 12.0139 36.3861 12.1333 36.5333 12.1333Z" fill="white"/>
<path d="M37.6 12.1333C37.7473 12.1333 37.8666 12.0139 37.8666 11.8667C37.8666 11.7194 37.7473 11.6 37.6 11.6C37.4527 11.6 37.3333 11.7194 37.3333 11.8667C37.3333 12.0139 37.4527 12.1333 37.6 12.1333Z" fill="white"/>
<path d="M37.0667 11.6C37.2139 11.6 37.3333 11.4806 37.3333 11.3333C37.3333 11.1861 37.2139 11.0667 37.0667 11.0667C36.9194 11.0667 36.8 11.1861 36.8 11.3333C36.8 11.4806 36.9194 11.6 37.0667 11.6Z" fill="white"/>
<path d="M37.6 11.0667C37.7473 11.0667 37.8666 10.9473 37.8666 10.8C37.8666 10.6527 37.7473 10.5333 37.6 10.5333C37.4527 10.5333 37.3333 10.6527 37.3333 10.8C37.3333 10.9473 37.4527 11.0667 37.6 11.0667Z" fill="white"/>
<path d="M34.9333 11.6C35.0806 11.6 35.2 11.4806 35.2 11.3333C35.2 11.1861 35.0806 11.0667 34.9333 11.0667C34.786 11.0667 34.6666 11.1861 34.6666 11.3333C34.6666 11.4806 34.786 11.6 34.9333 11.6Z" fill="white"/>
<path d="M35.9999 11.6C36.1472 11.6 36.2666 11.4806 36.2666 11.3333C36.2666 11.1861 36.1472 11.0667 35.9999 11.0667C35.8527 11.0667 35.7333 11.1861 35.7333 11.3333C35.7333 11.4806 35.8527 11.6 35.9999 11.6Z" fill="white"/>
<path d="M34.4 11.0667C34.5472 11.0667 34.6666 10.9473 34.6666 10.8C34.6666 10.6527 34.5472 10.5333 34.4 10.5333C34.2527 10.5333 34.1333 10.6527 34.1333 10.8C34.1333 10.9473 34.2527 11.0667 34.4 11.0667Z" fill="white"/>
<path d="M34.9333 12.6667C35.0806 12.6667 35.2 12.5473 35.2 12.4C35.2 12.2527 35.0806 12.1333 34.9333 12.1333C34.786 12.1333 34.6666 12.2527 34.6666 12.4C34.6666 12.5473 34.786 12.6667 34.9333 12.6667Z" fill="white"/>
<path d="M35.4666 13.2C35.6139 13.2 35.7333 13.0806 35.7333 12.9333C35.7333 12.7861 35.6139 12.6667 35.4666 12.6667C35.3193 12.6667 35.2 12.7861 35.2 12.9333C35.2 13.0806 35.3193 13.2 35.4666 13.2Z" fill="white"/>
<path d="M36.5333 13.2C36.6806 13.2 36.8 13.0806 36.8 12.9333C36.8 12.7861 36.6806 12.6667 36.5333 12.6667C36.3861 12.6667 36.2667 12.7861 36.2667 12.9333C36.2667 13.0806 36.3861 13.2 36.5333 13.2Z" fill="white"/>
<path d="M35.9999 12.6667C36.1472 12.6667 36.2666 12.5473 36.2666 12.4C36.2666 12.2527 36.1472 12.1333 35.9999 12.1333C35.8527 12.1333 35.7333 12.2527 35.7333 12.4C35.7333 12.5473 35.8527 12.6667 35.9999 12.6667Z" fill="white"/>
<path d="M37.0667 12.6667C37.2139 12.6667 37.3333 12.5473 37.3333 12.4C37.3333 12.2527 37.2139 12.1333 37.0667 12.1333C36.9194 12.1333 36.8 12.2527 36.8 12.4C36.8 12.5473 36.9194 12.6667 37.0667 12.6667Z" fill="white"/>
<path d="M35.9999 15.8667C36.1472 15.8667 36.2666 15.7473 36.2666 15.6C36.2666 15.4527 36.1472 15.3333 35.9999 15.3333C35.8527 15.3333 35.7333 15.4527 35.7333 15.6C35.7333 15.7473 35.8527 15.8667 35.9999 15.8667Z" fill="white"/>
<path d="M35.9999 16.6667C36.1472 16.6667 36.2666 16.5473 36.2666 16.4C36.2666 16.2527 36.1472 16.1333 35.9999 16.1333C35.8527 16.1333 35.7333 16.2527 35.7333 16.4C35.7333 16.5473 35.8527 16.6667 35.9999 16.6667Z" fill="white"/>
<path d="M35.9999 17.4667C36.1472 17.4667 36.2666 17.3473 36.2666 17.2C36.2666 17.0527 36.1472 16.9333 35.9999 16.9333C35.8527 16.9333 35.7333 17.0527 35.7333 17.2C35.7333 17.3473 35.8527 17.4667 35.9999 17.4667Z" fill="white"/>
<path d="M35.9999 18.2667C36.1472 18.2667 36.2666 18.1473 36.2666 18C36.2666 17.8527 36.1472 17.7333 35.9999 17.7333C35.8527 17.7333 35.7333 17.8527 35.7333 18C35.7333 18.1473 35.8527 18.2667 35.9999 18.2667Z" fill="white"/>
<path d="M35.9999 19.0667C36.1472 19.0667 36.2666 18.9473 36.2666 18.8C36.2666 18.6527 36.1472 18.5333 35.9999 18.5333C35.8527 18.5333 35.7333 18.6527 35.7333 18.8C35.7333 18.9473 35.8527 19.0667 35.9999 19.0667Z" fill="white"/>
<path d="M37.0667 19.6C37.2139 19.6 37.3333 19.4806 37.3333 19.3333C37.3333 19.1861 37.2139 19.0667 37.0667 19.0667C36.9194 19.0667 36.8 19.1861 36.8 19.3333C36.8 19.4806 36.9194 19.6 37.0667 19.6Z" fill="white"/>
<path d="M38.1333 19.6C38.2806 19.6 38.4 19.4806 38.4 19.3333C38.4 19.1861 38.2806 19.0667 38.1333 19.0667C37.986 19.0667 37.8666 19.1861 37.8666 19.3333C37.8666 19.4806 37.986 19.6 38.1333 19.6Z" fill="white"/>
<defs>
<linearGradient id="paint0_linear" x1="10.5" y1="12.25" x2="15.5807" y2="32.9998" gradientUnits="userSpaceOnUse">
<stop stop-color="#FFA857"/>
<stop offset="0.765625" stop-color="#FFCA62" stop-opacity="0.866433"/>
<stop offset="1" stop-color="#FFD53F" stop-opacity="0.73"/>
</linearGradient>
</defs>
</svg>
