<svg width="72" height="29" fill="none" xmlns="http://www.w3.org/2000/svg"><path fill="url(#paint0_linear)" d="M0 0h72v29H0z"/><path d="M43 6.114C41.998 6.114 41.998 5 40.996 5s-1.002 1.114-2 1.114S37.994 5 36.996 5s-.998 1.114-2 1.114S33.998 5 33 5s-1.002 1.114-2 1.114-1.002-.923-2-.923V23a1 1 0 001 1h14a1 1 0 001-1V5.19c-1.002 0-1.002.924-2 .924z" fill="#fff"/><path d="M38.6 10a.5.5 0 01.5-.5h3.267a.5.5 0 110 1H39.1a.5.5 0 01-.5-.5z" fill="#FF897E"/><rect x="31.133" y="12" width="11.733" height="1" rx=".5" fill="#FF897E" fill-opacity=".8"/><rect x="31.133" y="14.5" width="11.733" height="1" rx=".5" fill="#FF897E" fill-opacity=".6"/><rect x="31.133" y="17" width="11.733" height="1" rx=".5" fill="#FF897E" fill-opacity=".5"/><rect x="31.133" y="19.5" width="11.733" height="1" rx=".5" fill="#FF897E" fill-opacity=".3"/><defs><linearGradient id="paint0_linear" x1="90" y1="42.723" x2="74.263" y2="-15.884" gradientUnits="userSpaceOnUse"><stop stop-color="#FFF886"/><stop offset="1" stop-color="#FF4E78"/></linearGradient></defs></svg>